<?xml version="1.0" encoding="utf-8"?>
<!-- Generator: Adobe Illustrator 21.0.0, SVG Export Plug-In . SVG Version: 6.00 Build 0)  -->
<svg version="1.1" id="Layer_1" xmlns="http://www.w3.org/2000/svg" xmlns:xlink="http://www.w3.org/1999/xlink" x="0px" y="0px"
	 viewBox="0 0 512 512" style="enable-background:new 0 0 512 512;" xml:space="preserve">
<g>
	<path d="M0,0v512h512V0H0z M46.5,46.5h418.9v418.9H46.5V46.5z M253.9,93.1c-91.2,0-160.8,69.2-160.8,160.2
		c0,72.9,45.8,135.3,111.3,157.3c8.5,1.5,11.5-3.7,11.5-8c0-4-0.2-26.6-0.2-40.4c0,0-46.2,9.9-55.8-19.6c0,0-7.5-19-18.2-24
		c0,0-15-10.3,1.1-10.1c0,0,16.3,1.3,25.3,17c14.4,25.5,38.5,18.1,48,13.8c1.5-10.5,5.8-17.9,10.5-22.1c-36.8-4-73.9-9.4-73.9-72.5
		c0-18.1,5-27.1,15.5-38.8c-1.7-4.3-7.4-22,1.7-44.7c13.9-4.3,45.4,17.7,45.4,17.7c13.1-3.5,27.3-5.5,41.3-5.5c14,0,28.3,2,41.4,5.5
		c0,0,31.6-22,45.4-17.7c9,22.9,3.3,40.4,1.6,44.7c10.5,11.6,17,20.7,17,38.8c0,63.5-38.8,68.5-75.5,72.5c6.1,5.2,11.3,15,11.3,30.5
		c0,22.2-0.2,49.7-0.2,55c0,4.2,3,9.4,11.3,7.9c65.5-22,110-84.4,110-157.3C418.9,162.3,345.1,93.1,253.9,93.1z M152.7,313.9
		l-2.8,0.6l1.5,2.5l2.8-0.5L152.7,313.9z M158.6,319.4l-1.7,0.4l0.4,3.5l3.5,0.5l-0.4-3.5L158.6,319.4z M165.5,327.9l-2,0.2v3.9
		l3.7,1.5v-4L165.5,327.9z M173.1,337.1l-1.9,0.7l0.9,4l4.2,0.6l-0.9-4.1L173.1,337.1z M185.8,344.5l-4,1.5l2.8,3.2l4-1.3
		L185.8,344.5z M210.7,345.1l-3,3.1l3.9,1.6l3-3L210.7,345.1z M198.5,346.5L195,349c0,1.5,1.5,2.6,3.7,2.4l3.5-2.4L198.5,346.5z"/>
</g>
</svg>
