<svg xmlns="http://www.w3.org/2000/svg" xmlns:xlink="http://www.w3.org/1999/xlink" width="50" zoomAndPan="magnify" viewBox="0 0 37.5 37.499999" height="50" preserveAspectRatio="xMidYMid meet" version="1.0"><defs><clipPath id="id1"><path d="M 3.414062 3.414062 L 10.914062 3.414062 L 10.914062 10.914062 L 3.414062 10.914062 Z M 3.414062 3.414062 " clip-rule="nonzero"/></clipPath><clipPath id="id2"><path d="M 14.886719 3.414062 L 22.386719 3.414062 L 22.386719 10.914062 L 14.886719 10.914062 Z M 14.886719 3.414062 " clip-rule="nonzero"/></clipPath><clipPath id="id3"><path d="M 26.363281 3.414062 L 33.863281 3.414062 L 33.863281 10.914062 L 26.363281 10.914062 Z M 26.363281 3.414062 " clip-rule="nonzero"/></clipPath><clipPath id="id4"><path d="M 3.414062 14.886719 L 10.914062 14.886719 L 10.914062 22.386719 L 3.414062 22.386719 Z M 3.414062 14.886719 " clip-rule="nonzero"/></clipPath><clipPath id="id5"><path d="M 14.886719 14.886719 L 22.386719 14.886719 L 22.386719 22.386719 L 14.886719 22.386719 Z M 14.886719 14.886719 " clip-rule="nonzero"/></clipPath><clipPath id="id6"><path d="M 26.363281 14.886719 L 33.863281 14.886719 L 33.863281 22.386719 L 26.363281 22.386719 Z M 26.363281 14.886719 " clip-rule="nonzero"/></clipPath><clipPath id="id7"><path d="M 3.414062 26.023438 L 10.914062 26.023438 L 10.914062 33.523438 L 3.414062 33.523438 Z M 3.414062 26.023438 " clip-rule="nonzero"/></clipPath><clipPath id="id8"><path d="M 14.886719 26.023438 L 22.386719 26.023438 L 22.386719 33.523438 L 14.886719 33.523438 Z M 14.886719 26.023438 " clip-rule="nonzero"/></clipPath><clipPath id="id9"><path d="M 26.363281 26.023438 L 33.863281 26.023438 L 33.863281 33.523438 L 26.363281 33.523438 Z M 26.363281 26.023438 " clip-rule="nonzero"/></clipPath></defs><g clip-path="url(#id1)"><path fill="#ffffff" d="M 3.460938 3.460938 L 10.863281 3.460938 L 10.863281 10.863281 L 3.460938 10.863281 Z M 3.460938 3.460938 " fill-opacity="1" fill-rule="nonzero"/><path fill="#070404" d="M 10.863281 10.914062 L 3.460938 10.914062 C 3.433594 10.914062 3.414062 10.890625 3.414062 10.863281 L 3.414062 3.460938 C 3.414062 3.433594 3.433594 3.414062 3.460938 3.414062 L 10.863281 3.414062 C 10.890625 3.414062 10.914062 3.433594 10.914062 3.460938 L 10.914062 10.863281 C 10.914062 10.890625 10.890625 10.914062 10.863281 10.914062 Z M 3.511719 10.8125 L 10.8125 10.8125 L 10.8125 3.511719 L 3.511719 3.511719 Z M 3.511719 10.8125 " fill-opacity="1" fill-rule="nonzero"/></g><g clip-path="url(#id2)"><path fill="#ffffff" d="M 14.9375 3.460938 L 22.335938 3.460938 L 22.335938 10.863281 L 14.9375 10.863281 Z M 14.9375 3.460938 " fill-opacity="1" fill-rule="nonzero"/><path fill="#070404" d="M 22.335938 10.914062 L 14.9375 10.914062 C 14.910156 10.914062 14.886719 10.890625 14.886719 10.863281 L 14.886719 3.460938 C 14.886719 3.433594 14.910156 3.414062 14.9375 3.414062 L 22.335938 3.414062 C 22.367188 3.414062 22.386719 3.433594 22.386719 3.460938 L 22.386719 10.863281 C 22.386719 10.890625 22.367188 10.914062 22.335938 10.914062 Z M 14.988281 10.8125 L 22.289062 10.8125 L 22.289062 3.511719 L 14.988281 3.511719 Z M 14.988281 10.8125 " fill-opacity="1" fill-rule="nonzero"/></g><g clip-path="url(#id3)"><path fill="#ffffff" d="M 26.414062 3.460938 L 33.8125 3.460938 L 33.8125 10.863281 L 26.414062 10.863281 Z M 26.414062 3.460938 " fill-opacity="1" fill-rule="nonzero"/><path fill="#070404" d="M 33.8125 10.914062 L 26.414062 10.914062 C 26.382812 10.914062 26.363281 10.890625 26.363281 10.863281 L 26.363281 3.460938 C 26.363281 3.433594 26.382812 3.414062 26.414062 3.414062 L 33.8125 3.414062 C 33.839844 3.414062 33.863281 3.433594 33.863281 3.460938 L 33.863281 10.863281 C 33.863281 10.890625 33.839844 10.914062 33.8125 10.914062 Z M 26.460938 10.8125 L 33.761719 10.8125 L 33.761719 3.511719 L 26.460938 3.511719 Z M 26.460938 10.8125 " fill-opacity="1" fill-rule="nonzero"/></g><g clip-path="url(#id4)"><path fill="#ffffff" d="M 3.460938 14.9375 L 10.863281 14.9375 L 10.863281 22.335938 L 3.460938 22.335938 Z M 3.460938 14.9375 " fill-opacity="1" fill-rule="nonzero"/><path fill="#070404" d="M 10.863281 22.386719 L 3.460938 22.386719 C 3.433594 22.386719 3.414062 22.367188 3.414062 22.335938 L 3.414062 14.9375 C 3.414062 14.910156 3.433594 14.886719 3.460938 14.886719 L 10.863281 14.886719 C 10.890625 14.886719 10.914062 14.910156 10.914062 14.9375 L 10.914062 22.335938 C 10.914062 22.367188 10.890625 22.386719 10.863281 22.386719 Z M 3.511719 22.289062 L 10.8125 22.289062 L 10.8125 14.988281 L 3.511719 14.988281 Z M 3.511719 22.289062 " fill-opacity="1" fill-rule="nonzero"/></g><g clip-path="url(#id5)"><path fill="#ffffff" d="M 14.9375 14.9375 L 22.335938 14.9375 L 22.335938 22.335938 L 14.9375 22.335938 Z M 14.9375 14.9375 " fill-opacity="1" fill-rule="nonzero"/><path fill="#070404" d="M 22.335938 22.386719 L 14.9375 22.386719 C 14.910156 22.386719 14.886719 22.367188 14.886719 22.335938 L 14.886719 14.9375 C 14.886719 14.910156 14.910156 14.886719 14.9375 14.886719 L 22.335938 14.886719 C 22.367188 14.886719 22.386719 14.910156 22.386719 14.9375 L 22.386719 22.335938 C 22.386719 22.367188 22.367188 22.386719 22.335938 22.386719 Z M 14.988281 22.289062 L 22.289062 22.289062 L 22.289062 14.988281 L 14.988281 14.988281 Z M 14.988281 22.289062 " fill-opacity="1" fill-rule="nonzero"/></g><g clip-path="url(#id6)"><path fill="#ffffff" d="M 26.414062 14.9375 L 33.8125 14.9375 L 33.8125 22.335938 L 26.414062 22.335938 Z M 26.414062 14.9375 " fill-opacity="1" fill-rule="nonzero"/><path fill="#070404" d="M 33.8125 22.386719 L 26.414062 22.386719 C 26.382812 22.386719 26.363281 22.367188 26.363281 22.335938 L 26.363281 14.9375 C 26.363281 14.910156 26.382812 14.886719 26.414062 14.886719 L 33.8125 14.886719 C 33.839844 14.886719 33.863281 14.910156 33.863281 14.9375 L 33.863281 22.335938 C 33.863281 22.367188 33.839844 22.386719 33.8125 22.386719 Z M 26.460938 22.289062 L 33.761719 22.289062 L 33.761719 14.988281 L 26.460938 14.988281 Z M 26.460938 22.289062 " fill-opacity="1" fill-rule="nonzero"/></g><g clip-path="url(#id7)"><path fill="#ffffff" d="M 3.460938 26.074219 L 10.863281 26.074219 L 10.863281 33.476562 L 3.460938 33.476562 Z M 3.460938 26.074219 " fill-opacity="1" fill-rule="nonzero"/><path fill="#070404" d="M 10.863281 33.523438 L 3.460938 33.523438 C 3.433594 33.523438 3.414062 33.503906 3.414062 33.476562 L 3.414062 26.074219 C 3.414062 26.046875 3.433594 26.023438 3.460938 26.023438 L 10.863281 26.023438 C 10.890625 26.023438 10.914062 26.046875 10.914062 26.074219 L 10.914062 33.476562 C 10.914062 33.503906 10.890625 33.523438 10.863281 33.523438 Z M 3.511719 33.425781 L 10.8125 33.425781 L 10.8125 26.125 L 3.511719 26.125 Z M 3.511719 33.425781 " fill-opacity="1" fill-rule="nonzero"/></g><g clip-path="url(#id8)"><path fill="#ffffff" d="M 14.9375 26.074219 L 22.335938 26.074219 L 22.335938 33.476562 L 14.9375 33.476562 Z M 14.9375 26.074219 " fill-opacity="1" fill-rule="nonzero"/><path fill="#070404" d="M 22.335938 33.523438 L 14.9375 33.523438 C 14.910156 33.523438 14.886719 33.503906 14.886719 33.476562 L 14.886719 26.074219 C 14.886719 26.046875 14.910156 26.023438 14.9375 26.023438 L 22.335938 26.023438 C 22.367188 26.023438 22.386719 26.046875 22.386719 26.074219 L 22.386719 33.476562 C 22.386719 33.503906 22.367188 33.523438 22.335938 33.523438 Z M 14.988281 33.425781 L 22.289062 33.425781 L 22.289062 26.125 L 14.988281 26.125 Z M 14.988281 33.425781 " fill-opacity="1" fill-rule="nonzero"/></g><g clip-path="url(#id9)"><path fill="#ffffff" d="M 26.414062 26.074219 L 33.8125 26.074219 L 33.8125 33.476562 L 26.414062 33.476562 Z M 26.414062 26.074219 " fill-opacity="1" fill-rule="nonzero"/><path fill="#070404" d="M 33.8125 33.523438 L 26.414062 33.523438 C 26.382812 33.523438 26.363281 33.503906 26.363281 33.476562 L 26.363281 26.074219 C 26.363281 26.046875 26.382812 26.023438 26.414062 26.023438 L 33.8125 26.023438 C 33.839844 26.023438 33.863281 26.046875 33.863281 26.074219 L 33.863281 33.476562 C 33.863281 33.503906 33.839844 33.523438 33.8125 33.523438 Z M 26.460938 33.425781 L 33.761719 33.425781 L 33.761719 26.125 L 26.460938 26.125 Z M 26.460938 33.425781 " fill-opacity="1" fill-rule="nonzero"/></g></svg>