<svg xmlns="http://www.w3.org/2000/svg" xmlns:xlink="http://www.w3.org/1999/xlink" width="100" zoomAndPan="magnify" viewBox="0 0 75 74.999997" height="100" preserveAspectRatio="xMidYMid meet" version="1.0"><defs><clipPath id="id1"><path d="M 6.867188 7.792969 L 21.867188 7.792969 L 21.867188 22.792969 L 6.867188 22.792969 Z M 6.867188 7.792969 " clip-rule="nonzero"/></clipPath><clipPath id="id2"><path d="M 7.050781 29.027344 L 22.050781 29.027344 L 22.050781 44.027344 L 7.050781 44.027344 Z M 7.050781 29.027344 " clip-rule="nonzero"/></clipPath><clipPath id="id3"><path d="M 53.167969 51.125 L 68.167969 51.125 L 68.167969 66.125 L 53.167969 66.125 Z M 53.167969 51.125 " clip-rule="nonzero"/></clipPath><clipPath id="id4"><path d="M 52.90625 7.449219 L 67.90625 7.449219 L 67.90625 22.449219 L 52.90625 22.449219 Z M 52.90625 7.449219 " clip-rule="nonzero"/></clipPath><clipPath id="id5"><path d="M 30.214844 29.027344 L 45.214844 29.027344 L 45.214844 44.027344 L 30.214844 44.027344 Z M 30.214844 29.027344 " clip-rule="nonzero"/></clipPath><clipPath id="id6"><path d="M 30.277344 7.792969 L 45.277344 7.792969 L 45.277344 22.792969 L 30.277344 22.792969 Z M 30.277344 7.792969 " clip-rule="nonzero"/></clipPath><clipPath id="id7"><path d="M 52.90625 29.027344 L 67.90625 29.027344 L 67.90625 44.027344 L 52.90625 44.027344 Z M 52.90625 29.027344 " clip-rule="nonzero"/></clipPath><clipPath id="id8"><path d="M 30.277344 50.835938 L 45.277344 50.835938 L 45.277344 65.835938 L 30.277344 65.835938 Z M 30.277344 50.835938 " clip-rule="nonzero"/></clipPath><clipPath id="id9"><path d="M 7.050781 50.835938 L 22.050781 50.835938 L 22.050781 65.835938 L 7.050781 65.835938 Z M 7.050781 50.835938 " clip-rule="nonzero"/></clipPath></defs><rect x="-7.5" width="90" fill="#ffffff" y="-7.5" height="89.999996" fill-opacity="1"/><rect x="-7.5" width="90" fill="#000000" y="-7.5" height="89.999996" fill-opacity="1"/><rect x="-7.5" width="90" fill="#ffffff" y="-7.5" height="89.999996" fill-opacity="1"/><rect x="-7.5" width="90" fill="#000000" y="-7.5" height="89.999996" fill-opacity="1"/><g clip-path="url(#id1)"><path fill="#ffffff" d="M 6.867188 7.792969 L 6.867188 22.792969 L 21.867188 22.792969 L 21.867188 7.792969 Z M 21.484375 22.410156 L 7.25 22.410156 L 7.25 8.175781 L 21.484375 8.175781 Z M 21.484375 22.410156 " fill-opacity="1" fill-rule="nonzero"/></g><g clip-path="url(#id2)"><path fill="#ffffff" d="M 7.050781 29.027344 L 7.050781 44.027344 L 22.050781 44.027344 L 22.050781 29.027344 Z M 21.667969 43.644531 L 7.433594 43.644531 L 7.433594 29.410156 L 21.667969 29.410156 Z M 21.667969 43.644531 " fill-opacity="1" fill-rule="nonzero"/></g><g clip-path="url(#id3)"><path fill="#ffffff" d="M 53.167969 51.125 L 53.167969 66.125 L 68.167969 66.125 L 68.167969 51.125 Z M 67.785156 65.742188 L 53.550781 65.742188 L 53.550781 51.507812 L 67.785156 51.507812 Z M 67.785156 65.742188 " fill-opacity="1" fill-rule="nonzero"/></g><g clip-path="url(#id4)"><path fill="#ffffff" d="M 52.90625 7.449219 L 52.90625 22.449219 L 67.90625 22.449219 L 67.90625 7.449219 Z M 67.523438 22.0625 L 53.289062 22.0625 L 53.289062 7.832031 L 67.523438 7.832031 Z M 67.523438 22.0625 " fill-opacity="1" fill-rule="nonzero"/></g><g clip-path="url(#id5)"><path fill="#ffffff" d="M 30.214844 29.027344 L 30.214844 44.027344 L 45.214844 44.027344 L 45.214844 29.027344 Z M 44.832031 43.644531 L 30.597656 43.644531 L 30.597656 29.410156 L 44.832031 29.410156 Z M 44.832031 43.644531 " fill-opacity="1" fill-rule="nonzero"/></g><g clip-path="url(#id6)"><path fill="#ffffff" d="M 30.277344 7.792969 L 30.277344 22.792969 L 45.277344 22.792969 L 45.277344 7.792969 Z M 44.894531 22.410156 L 30.660156 22.410156 L 30.660156 8.175781 L 44.894531 8.175781 Z M 44.894531 22.410156 " fill-opacity="1" fill-rule="nonzero"/></g><g clip-path="url(#id7)"><path fill="#ffffff" d="M 52.90625 29.027344 L 52.90625 44.027344 L 67.90625 44.027344 L 67.90625 29.027344 Z M 67.523438 43.644531 L 53.289062 43.644531 L 53.289062 29.410156 L 67.523438 29.410156 Z M 67.523438 43.644531 " fill-opacity="1" fill-rule="nonzero"/></g><g clip-path="url(#id8)"><path fill="#ffffff" d="M 30.277344 50.835938 L 30.277344 65.835938 L 45.277344 65.835938 L 45.277344 50.835938 Z M 44.894531 65.453125 L 30.660156 65.453125 L 30.660156 51.21875 L 44.894531 51.21875 Z M 44.894531 65.453125 " fill-opacity="1" fill-rule="nonzero"/></g><g clip-path="url(#id9)"><path fill="#ffffff" d="M 7.050781 50.835938 L 7.050781 65.835938 L 22.050781 65.835938 L 22.050781 50.835938 Z M 21.667969 65.453125 L 7.433594 65.453125 L 7.433594 51.21875 L 21.667969 51.21875 Z M 21.667969 65.453125 " fill-opacity="1" fill-rule="nonzero"/></g></svg>