<?xml version="1.0" encoding="utf-8"?>
<!-- Generator: Adobe Illustrator 24.1.1, SVG Export Plug-In . SVG Version: 6.00 Build 0)  -->
<svg version="1.1" id="Layer_1" xmlns="http://www.w3.org/2000/svg" xmlns:xlink="http://www.w3.org/1999/xlink" x="0px" y="0px"
	 viewBox="0 0 512 512" style="enable-background:new 0 0 512 512;" xml:space="preserve">
<g>
	<path d="M0,0v512h512V0H0z M125.6,100.7c20.3,0.2,40.3,14.2,41.1,38.4c0.4,21.5-18.3,37.9-41.7,38.4h-0.6
		c-20.1-0.2-39.7-14.6-40.6-38.4C84.2,117.8,102.1,101.2,125.6,100.7z M343.1,202.4c22.3,0.1,43.3,6.8,60.6,24.4
		c18,20,23.7,47.7,24.4,75.7v127.8h-73.6V311.2c-0.2-22.3-7.8-49.4-37.3-50.3c-17.3,0.2-29.5,10.2-37.9,27.1
		c-2.3,5.4-2.6,11.6-2.7,17.8v124.5H203c0.3-62.2,0.7-124.5,0.5-186.7c0-17.7-0.2-29.6-0.5-35.7h73.6v31.4
		c6.2-8.9,13.2-17.3,22.5-24.1C311.6,206.1,326.8,202.7,343.1,202.4z M88.2,207.8h73.6v222.4H88.2V207.8z"/>
</g>
</svg>
