<svg xmlns="http://www.w3.org/2000/svg" xmlns:xlink="http://www.w3.org/1999/xlink" width="500" zoomAndPan="magnify" viewBox="0 0 375 374.999991" height="500" preserveAspectRatio="xMidYMid meet" version="1.0"><defs><g/></defs><rect x="-37.5" width="450" fill="#ffffff" y="-37.499999" height="449.999989" fill-opacity="1"/><rect x="-37.5" width="450" fill="#000000" y="-37.499999" height="449.999989" fill-opacity="1"/><rect x="-37.5" width="450" fill="#ffffff" y="-37.499999" height="449.999989" fill-opacity="1"/><rect x="-37.5" width="450" fill="#000000" y="-37.499999" height="449.999989" fill-opacity="1"/><g fill="#ffffff" fill-opacity="1"><g transform="translate(78.801543, 192.999187)"><g><path d="M 8.21875 -4.140625 L 13.453125 -18.796875 L 15.703125 -18.796875 L 8.859375 0 L 7.515625 0 L 0.671875 -18.796875 L 2.984375 -18.796875 Z M 8.21875 -4.140625 "/></g></g></g><g fill="#ffffff" fill-opacity="1"><g transform="translate(95.171411, 192.999187)"><g><path d="M 4.703125 -8.71875 L 4.703125 -2.015625 L 12.75 -2.015625 L 12.75 0 L 2.546875 0 L 2.546875 -18.796875 L 12.484375 -18.796875 L 12.484375 -16.78125 L 4.703125 -16.78125 L 4.703125 -10.734375 L 12.21875 -10.734375 L 12.21875 -8.71875 Z M 4.703125 -8.71875 "/></g></g></g><g fill="#ffffff" fill-opacity="1"><g transform="translate(109.662777, 192.999187)"><g><path d="M 13.5625 0 L 6.90625 -8.046875 L 4.703125 -8.046875 L 4.703125 0 L 2.546875 0 L 2.546875 -18.796875 L 8.046875 -18.796875 C 9.253906 -18.796875 10.316406 -18.5625 11.234375 -18.09375 C 12.148438 -17.625 12.863281 -16.984375 13.375 -16.171875 C 13.882812 -15.359375 14.140625 -14.441406 14.140625 -13.421875 C 14.140625 -12.078125 13.710938 -10.925781 12.859375 -9.96875 C 12.015625 -9.007812 10.878906 -8.40625 9.453125 -8.15625 L 16.234375 0 Z M 4.703125 -16.78125 L 4.703125 -10.0625 L 8.046875 -10.0625 C 9.234375 -10.0625 10.175781 -10.363281 10.875 -10.96875 C 11.570312 -11.582031 11.921875 -12.398438 11.921875 -13.421875 C 11.921875 -14.441406 11.570312 -15.253906 10.875 -15.859375 C 10.175781 -16.472656 9.234375 -16.78125 8.046875 -16.78125 Z M 4.703125 -16.78125 "/></g></g></g><g fill="#ffffff" fill-opacity="1"><g transform="translate(126.032645, 192.999187)"><g><path d="M 11.171875 0.265625 C 9.398438 0.265625 7.769531 -0.160156 6.28125 -1.015625 C 4.789062 -1.878906 3.613281 -3.050781 2.75 -4.53125 C 1.894531 -6.019531 1.46875 -7.640625 1.46875 -9.390625 C 1.46875 -11.148438 1.894531 -12.769531 2.75 -14.25 C 3.613281 -15.738281 4.789062 -16.910156 6.28125 -17.765625 C 7.769531 -18.628906 9.398438 -19.0625 11.171875 -19.0625 C 12.941406 -19.0625 14.566406 -18.628906 16.046875 -17.765625 C 17.535156 -16.910156 18.707031 -15.738281 19.5625 -14.25 C 20.425781 -12.769531 20.859375 -11.148438 20.859375 -9.390625 C 20.859375 -7.640625 20.425781 -6.019531 19.5625 -4.53125 C 18.707031 -3.050781 17.535156 -1.878906 16.046875 -1.015625 C 14.566406 -0.160156 12.941406 0.265625 11.171875 0.265625 Z M 11.171875 -1.75 C 12.523438 -1.75 13.769531 -2.085938 14.90625 -2.765625 C 16.039062 -3.441406 16.941406 -4.363281 17.609375 -5.53125 C 18.285156 -6.695312 18.625 -7.984375 18.625 -9.390625 C 18.625 -10.804688 18.285156 -12.09375 17.609375 -13.25 C 16.941406 -14.414062 16.039062 -15.335938 14.90625 -16.015625 C 13.769531 -16.703125 12.523438 -17.046875 11.171875 -17.046875 C 9.804688 -17.046875 8.554688 -16.703125 7.421875 -16.015625 C 6.285156 -15.335938 5.378906 -14.414062 4.703125 -13.25 C 4.035156 -12.09375 3.703125 -10.804688 3.703125 -9.390625 C 3.703125 -7.984375 4.035156 -6.695312 4.703125 -5.53125 C 5.378906 -4.363281 6.285156 -3.441406 7.421875 -2.765625 C 8.554688 -2.085938 9.804688 -1.75 11.171875 -1.75 Z M 11.171875 -1.75 "/></g></g></g><g fill="#ffffff" fill-opacity="1"><g transform="translate(148.360079, 192.999187)"><g><path d="M 16.5625 -3.96875 L 16.5625 -18.796875 L 18.65625 -18.796875 L 18.65625 0 L 17.3125 0 L 4.640625 -14.8125 L 4.640625 0 L 2.546875 0 L 2.546875 -18.796875 L 3.890625 -18.796875 Z M 16.5625 -3.96875 "/></g></g></g><g fill="#ffffff" fill-opacity="1"><g transform="translate(169.560406, 192.999187)"><g><path d="M 4.828125 0 L 2.6875 0 L 2.6875 -18.796875 L 4.828125 -18.796875 Z M 4.828125 0 "/></g></g></g><g fill="#ffffff" fill-opacity="1"><g transform="translate(177.074447, 192.999187)"><g><path d="M 6.984375 -9.6875 L 15.84375 0 L 13 0 L 4.703125 -9.09375 L 4.703125 0 L 2.546875 0 L 2.546875 -18.796875 L 4.703125 -18.796875 L 4.703125 -10.0625 L 12.59375 -18.796875 L 15.21875 -18.796875 Z M 6.984375 -9.6875 "/></g></g></g><g fill="#ffffff" fill-opacity="1"><g transform="translate(193.041781, 192.999187)"><g><path d="M 17.453125 0 L 15.140625 0 L 13.125 -5.09375 L 4.8125 -5.09375 L 2.796875 0 L 0.53125 0 L 8.1875 -18.796875 L 9.796875 -18.796875 Z M 12.328125 -7.109375 L 8.96875 -15.59375 L 5.609375 -7.109375 Z M 12.328125 -7.109375 "/></g></g></g><g fill="#ffffff" fill-opacity="1"><g transform="translate(218.535851, 192.999187)"><g><path d="M 7.703125 0.265625 C 6.410156 0.265625 5.289062 0.0234375 4.34375 -0.453125 C 3.394531 -0.941406 2.664062 -1.613281 2.15625 -2.46875 C 1.644531 -3.332031 1.375 -4.300781 1.34375 -5.375 L 3.484375 -5.375 C 3.523438 -4.3125 3.910156 -3.441406 4.640625 -2.765625 C 5.378906 -2.085938 6.398438 -1.75 7.703125 -1.75 C 8.867188 -1.75 9.796875 -2.023438 10.484375 -2.578125 C 11.171875 -3.128906 11.515625 -3.878906 11.515625 -4.828125 C 11.515625 -5.566406 11.320312 -6.171875 10.9375 -6.640625 C 10.550781 -7.117188 10.070312 -7.488281 9.5 -7.75 C 8.925781 -8.019531 8.15625 -8.304688 7.1875 -8.609375 C 6.007812 -9.023438 5.070312 -9.40625 4.375 -9.75 C 3.675781 -10.101562 3.078125 -10.628906 2.578125 -11.328125 C 2.078125 -12.023438 1.828125 -12.945312 1.828125 -14.09375 C 1.828125 -15.019531 2.078125 -15.859375 2.578125 -16.609375 C 3.078125 -17.367188 3.769531 -17.96875 4.65625 -18.40625 C 5.539062 -18.84375 6.539062 -19.0625 7.65625 -19.0625 C 8.707031 -19.0625 9.664062 -18.832031 10.53125 -18.375 C 11.40625 -17.914062 12.097656 -17.285156 12.609375 -16.484375 C 13.128906 -15.679688 13.398438 -14.796875 13.421875 -13.828125 L 11.28125 -13.828125 C 11.238281 -14.773438 10.867188 -15.546875 10.171875 -16.140625 C 9.472656 -16.742188 8.601562 -17.046875 7.5625 -17.046875 C 6.550781 -17.046875 5.710938 -16.796875 5.046875 -16.296875 C 4.378906 -15.796875 4.046875 -15.0625 4.046875 -14.09375 C 4.046875 -13.414062 4.226562 -12.851562 4.59375 -12.40625 C 4.96875 -11.957031 5.425781 -11.609375 5.96875 -11.359375 C 6.519531 -11.109375 7.273438 -10.8125 8.234375 -10.46875 C 9.398438 -10.09375 10.351562 -9.71875 11.09375 -9.34375 C 11.84375 -8.96875 12.472656 -8.414062 12.984375 -7.6875 C 13.492188 -6.96875 13.75 -6.015625 13.75 -4.828125 C 13.75 -3.859375 13.484375 -2.984375 12.953125 -2.203125 C 12.421875 -1.429688 11.695312 -0.828125 10.78125 -0.390625 C 9.875 0.046875 8.847656 0.265625 7.703125 0.265625 Z M 7.703125 0.265625 "/></g></g></g><g fill="#ffffff" fill-opacity="1"><g transform="translate(233.617607, 192.999187)"><g><path d="M 4.703125 -8.71875 L 4.703125 -2.015625 L 12.75 -2.015625 L 12.75 0 L 2.546875 0 L 2.546875 -18.796875 L 12.484375 -18.796875 L 12.484375 -16.78125 L 4.703125 -16.78125 L 4.703125 -10.734375 L 12.21875 -10.734375 L 12.21875 -8.71875 Z M 4.703125 -8.71875 "/></g></g></g><g fill="#ffffff" fill-opacity="1"><g transform="translate(248.108973, 192.999187)"><g><path d="M 7.703125 0.265625 C 6.410156 0.265625 5.289062 0.0234375 4.34375 -0.453125 C 3.394531 -0.941406 2.664062 -1.613281 2.15625 -2.46875 C 1.644531 -3.332031 1.375 -4.300781 1.34375 -5.375 L 3.484375 -5.375 C 3.523438 -4.3125 3.910156 -3.441406 4.640625 -2.765625 C 5.378906 -2.085938 6.398438 -1.75 7.703125 -1.75 C 8.867188 -1.75 9.796875 -2.023438 10.484375 -2.578125 C 11.171875 -3.128906 11.515625 -3.878906 11.515625 -4.828125 C 11.515625 -5.566406 11.320312 -6.171875 10.9375 -6.640625 C 10.550781 -7.117188 10.070312 -7.488281 9.5 -7.75 C 8.925781 -8.019531 8.15625 -8.304688 7.1875 -8.609375 C 6.007812 -9.023438 5.070312 -9.40625 4.375 -9.75 C 3.675781 -10.101562 3.078125 -10.628906 2.578125 -11.328125 C 2.078125 -12.023438 1.828125 -12.945312 1.828125 -14.09375 C 1.828125 -15.019531 2.078125 -15.859375 2.578125 -16.609375 C 3.078125 -17.367188 3.769531 -17.96875 4.65625 -18.40625 C 5.539062 -18.84375 6.539062 -19.0625 7.65625 -19.0625 C 8.707031 -19.0625 9.664062 -18.832031 10.53125 -18.375 C 11.40625 -17.914062 12.097656 -17.285156 12.609375 -16.484375 C 13.128906 -15.679688 13.398438 -14.796875 13.421875 -13.828125 L 11.28125 -13.828125 C 11.238281 -14.773438 10.867188 -15.546875 10.171875 -16.140625 C 9.472656 -16.742188 8.601562 -17.046875 7.5625 -17.046875 C 6.550781 -17.046875 5.710938 -16.796875 5.046875 -16.296875 C 4.378906 -15.796875 4.046875 -15.0625 4.046875 -14.09375 C 4.046875 -13.414062 4.226562 -12.851562 4.59375 -12.40625 C 4.96875 -11.957031 5.425781 -11.609375 5.96875 -11.359375 C 6.519531 -11.109375 7.273438 -10.8125 8.234375 -10.46875 C 9.398438 -10.09375 10.351562 -9.71875 11.09375 -9.34375 C 11.84375 -8.96875 12.472656 -8.414062 12.984375 -7.6875 C 13.492188 -6.96875 13.75 -6.015625 13.75 -4.828125 C 13.75 -3.859375 13.484375 -2.984375 12.953125 -2.203125 C 12.421875 -1.429688 11.695312 -0.828125 10.78125 -0.390625 C 9.875 0.046875 8.847656 0.265625 7.703125 0.265625 Z M 7.703125 0.265625 "/></g></g></g><g fill="#ffffff" fill-opacity="1"><g transform="translate(263.190729, 192.999187)"><g><path d="M 17.453125 0 L 15.140625 0 L 13.125 -5.09375 L 4.8125 -5.09375 L 2.796875 0 L 0.53125 0 L 8.1875 -18.796875 L 9.796875 -18.796875 Z M 12.328125 -7.109375 L 8.96875 -15.59375 L 5.609375 -7.109375 Z M 12.328125 -7.109375 "/></g></g></g><g fill="#ffffff" fill-opacity="1"><g transform="translate(281.170746, 192.999187)"><g><path d="M 7.546875 -10.3125 L 12.234375 -18.796875 L 14.625 -18.796875 L 8.59375 -8.1875 L 8.59375 0 L 6.4375 0 L 6.4375 -8.1875 L 0.40625 -18.796875 L 2.84375 -18.796875 Z M 7.546875 -10.3125 "/></g></g></g><path stroke-linecap="butt" transform="matrix(1.497872, 0, 0, 1.6, 63.569151, 136.590637)" fill="none" stroke-linejoin="miter" d="M 0.000775616 -0.00049555 L 165.240368 -0.00049555 " stroke="#ffffff" stroke-width="1" stroke-opacity="1" stroke-miterlimit="4"/><path stroke-linecap="butt" transform="matrix(1.501685, 0, 0, 1.6, 63.569151, 230.18105)" fill="none" stroke-linejoin="miter" d="M 0.000773647 -0.000851365 L 90.399209 -0.000851365 " stroke="#ffffff" stroke-width="1" stroke-opacity="1" stroke-miterlimit="4"/><g fill="#ffffff" fill-opacity="1"><g transform="translate(207.865434, 233.506038)"><g><path d="M 0.984375 -3.40625 L 0.984375 -3.625 L 5.9375 -6.59375 L 5.9375 -6.328125 L 1.25 -3.53125 L 1.25 -3.5 L 5.9375 -0.703125 L 5.9375 -0.4375 Z M 0.984375 -3.40625 "/></g></g></g><g fill="#ffffff" fill-opacity="1"><g transform="translate(214.777162, 233.506038)"><g><path d="M 1.25 0 L 1.25 -8.046875 L 5.546875 -8.046875 L 5.546875 -7.8125 L 1.5 -7.8125 L 1.5 -4.203125 L 5.390625 -4.203125 L 5.390625 -3.96875 L 1.5 -3.96875 L 1.5 0 Z M 1.25 0 "/></g></g></g><g fill="#ffffff" fill-opacity="1"><g transform="translate(220.940125, 233.506038)"><g><path d="M 1.203125 0 L 1.203125 -5.828125 L 1.453125 -5.828125 L 1.453125 -4.828125 L 1.484375 -4.828125 C 1.554688 -4.972656 1.640625 -5.101562 1.734375 -5.21875 C 1.828125 -5.332031 1.945312 -5.4375 2.09375 -5.53125 C 2.238281 -5.625 2.410156 -5.695312 2.609375 -5.75 C 2.804688 -5.800781 3.039062 -5.828125 3.3125 -5.828125 L 3.78125 -5.828125 L 3.78125 -5.609375 L 3.28125 -5.609375 C 3.039062 -5.609375 2.8125 -5.578125 2.59375 -5.515625 C 2.375 -5.453125 2.175781 -5.351562 2 -5.21875 C 1.832031 -5.09375 1.695312 -4.925781 1.59375 -4.71875 C 1.5 -4.519531 1.453125 -4.289062 1.453125 -4.03125 L 1.453125 0 Z M 1.203125 0 "/></g></g></g><g fill="#ffffff" fill-opacity="1"><g transform="translate(224.868287, 233.506038)"><g><path d="M 3.109375 0.140625 C 2.335938 0.140625 1.738281 -0.113281 1.3125 -0.625 C 0.894531 -1.132812 0.6875 -1.898438 0.6875 -2.921875 C 0.6875 -3.929688 0.894531 -4.691406 1.3125 -5.203125 C 1.738281 -5.710938 2.335938 -5.96875 3.109375 -5.96875 C 3.878906 -5.96875 4.472656 -5.710938 4.890625 -5.203125 C 5.316406 -4.691406 5.53125 -3.929688 5.53125 -2.921875 C 5.53125 -1.898438 5.316406 -1.132812 4.890625 -0.625 C 4.472656 -0.113281 3.878906 0.140625 3.109375 0.140625 Z M 3.109375 -0.078125 C 3.804688 -0.078125 4.335938 -0.304688 4.703125 -0.765625 C 5.078125 -1.222656 5.265625 -1.847656 5.265625 -2.640625 L 5.265625 -3.1875 C 5.265625 -3.976562 5.078125 -4.601562 4.703125 -5.0625 C 4.335938 -5.519531 3.804688 -5.75 3.109375 -5.75 C 2.410156 -5.75 1.875 -5.519531 1.5 -5.0625 C 1.132812 -4.601562 0.953125 -3.976562 0.953125 -3.1875 L 0.953125 -2.640625 C 0.953125 -1.847656 1.132812 -1.222656 1.5 -0.765625 C 1.875 -0.304688 2.410156 -0.078125 3.109375 -0.078125 Z M 3.109375 -0.078125 "/></g></g></g><g fill="#ffffff" fill-opacity="1"><g transform="translate(231.088848, 233.506038)"><g><path d="M 1.203125 0 L 1.203125 -5.828125 L 1.453125 -5.828125 L 1.453125 -4.953125 L 1.484375 -4.953125 C 1.585938 -5.210938 1.785156 -5.445312 2.078125 -5.65625 C 2.378906 -5.863281 2.789062 -5.96875 3.3125 -5.96875 C 3.96875 -5.96875 4.460938 -5.78125 4.796875 -5.40625 C 5.140625 -5.03125 5.3125 -4.476562 5.3125 -3.75 L 5.3125 0 L 5.078125 0 L 5.078125 -3.703125 C 5.078125 -4.421875 4.921875 -4.941406 4.609375 -5.265625 C 4.304688 -5.585938 3.863281 -5.75 3.28125 -5.75 C 3.039062 -5.75 2.8125 -5.71875 2.59375 -5.65625 C 2.375 -5.59375 2.175781 -5.492188 2 -5.359375 C 1.832031 -5.234375 1.695312 -5.066406 1.59375 -4.859375 C 1.5 -4.660156 1.453125 -4.429688 1.453125 -4.171875 L 1.453125 0 Z M 1.203125 0 "/></g></g></g><g fill="#ffffff" fill-opacity="1"><g transform="translate(237.493717, 233.506038)"><g><path d="M 1.78125 0 C 1.550781 0 1.4375 -0.109375 1.4375 -0.328125 L 1.4375 -5.609375 L 0.34375 -5.609375 L 0.34375 -5.828125 L 1.171875 -5.828125 C 1.285156 -5.828125 1.359375 -5.847656 1.390625 -5.890625 C 1.421875 -5.941406 1.4375 -6.019531 1.4375 -6.125 L 1.4375 -7.5 L 1.6875 -7.5 L 1.6875 -5.828125 L 3.078125 -5.828125 L 3.078125 -5.609375 L 1.6875 -5.609375 L 1.6875 -0.21875 L 2.984375 -0.21875 L 2.984375 0 Z M 1.78125 0 "/></g></g></g><g fill="#ffffff" fill-opacity="1"><g transform="translate(241.064777, 233.506038)"><g><path d="M 0.953125 -3.40625 L 0.953125 -3.625 L 3.59375 -3.625 L 3.59375 -3.40625 Z M 0.953125 -3.40625 "/></g></g></g><g fill="#ffffff" fill-opacity="1"><g transform="translate(245.615005, 233.506038)"><g><path d="M 1.25 0 L 1.25 -8.046875 L 5.640625 -8.046875 L 5.640625 -7.8125 L 1.5 -7.8125 L 1.5 -4.203125 L 5.5 -4.203125 L 5.5 -3.96875 L 1.5 -3.96875 L 1.5 -0.234375 L 5.640625 -0.234375 L 5.640625 0 Z M 1.25 0 "/></g></g></g><g fill="#ffffff" fill-opacity="1"><g transform="translate(252.077471, 233.506038)"><g><path d="M 1.203125 0 L 1.203125 -5.828125 L 1.453125 -5.828125 L 1.453125 -4.953125 L 1.484375 -4.953125 C 1.585938 -5.210938 1.785156 -5.445312 2.078125 -5.65625 C 2.378906 -5.863281 2.789062 -5.96875 3.3125 -5.96875 C 3.96875 -5.96875 4.460938 -5.78125 4.796875 -5.40625 C 5.140625 -5.03125 5.3125 -4.476562 5.3125 -3.75 L 5.3125 0 L 5.078125 0 L 5.078125 -3.703125 C 5.078125 -4.421875 4.921875 -4.941406 4.609375 -5.265625 C 4.304688 -5.585938 3.863281 -5.75 3.28125 -5.75 C 3.039062 -5.75 2.8125 -5.71875 2.59375 -5.65625 C 2.375 -5.59375 2.175781 -5.492188 2 -5.359375 C 1.832031 -5.234375 1.695312 -5.066406 1.59375 -4.859375 C 1.5 -4.660156 1.453125 -4.429688 1.453125 -4.171875 L 1.453125 0 Z M 1.203125 0 "/></g></g></g><g fill="#ffffff" fill-opacity="1"><g transform="translate(258.48234, 233.506038)"><g><path d="M 5.0625 -0.90625 L 5.03125 -0.90625 C 4.96875 -0.769531 4.878906 -0.640625 4.765625 -0.515625 C 4.660156 -0.390625 4.53125 -0.28125 4.375 -0.1875 C 4.21875 -0.09375 4.035156 -0.015625 3.828125 0.046875 C 3.617188 0.109375 3.390625 0.140625 3.140625 0.140625 C 2.367188 0.140625 1.765625 -0.113281 1.328125 -0.625 C 0.898438 -1.132812 0.6875 -1.898438 0.6875 -2.921875 C 0.6875 -3.941406 0.898438 -4.703125 1.328125 -5.203125 C 1.765625 -5.710938 2.367188 -5.96875 3.140625 -5.96875 C 3.390625 -5.96875 3.617188 -5.9375 3.828125 -5.875 C 4.035156 -5.8125 4.21875 -5.734375 4.375 -5.640625 C 4.53125 -5.546875 4.660156 -5.4375 4.765625 -5.3125 C 4.878906 -5.1875 4.96875 -5.0625 5.03125 -4.9375 L 5.0625 -4.9375 L 5.0625 -8.53125 L 5.296875 -8.53125 L 5.296875 0 L 5.0625 0 Z M 3.140625 -0.078125 C 3.390625 -0.078125 3.628906 -0.113281 3.859375 -0.1875 C 4.085938 -0.269531 4.289062 -0.378906 4.46875 -0.515625 C 4.65625 -0.648438 4.800781 -0.8125 4.90625 -1 C 5.007812 -1.195312 5.0625 -1.414062 5.0625 -1.65625 L 5.0625 -4.1875 C 5.0625 -4.414062 5.007812 -4.625 4.90625 -4.8125 C 4.800781 -5.007812 4.65625 -5.175781 4.46875 -5.3125 C 4.289062 -5.457031 4.085938 -5.566406 3.859375 -5.640625 C 3.628906 -5.710938 3.390625 -5.75 3.140625 -5.75 C 2.441406 -5.75 1.898438 -5.519531 1.515625 -5.0625 C 1.140625 -4.601562 0.953125 -3.976562 0.953125 -3.1875 L 0.953125 -2.640625 C 0.953125 -1.847656 1.140625 -1.222656 1.515625 -0.765625 C 1.898438 -0.304688 2.441406 -0.078125 3.140625 -0.078125 Z M 3.140625 -0.078125 "/></g></g></g><g fill="#ffffff" fill-opacity="1"><g transform="translate(264.990881, 233.506038)"><g/></g></g><g fill="#ffffff" fill-opacity="1"><g transform="translate(267.709493, 233.506038)"><g><path d="M 1.25 -8.046875 L 3.59375 -8.046875 C 4.675781 -8.046875 5.476562 -7.707031 6 -7.03125 C 6.519531 -6.363281 6.78125 -5.363281 6.78125 -4.03125 C 6.78125 -2.6875 6.519531 -1.675781 6 -1 C 5.476562 -0.332031 4.675781 0 3.59375 0 L 1.25 0 Z M 3.609375 -0.234375 C 4.109375 -0.234375 4.539062 -0.3125 4.90625 -0.46875 C 5.269531 -0.632812 5.566406 -0.867188 5.796875 -1.171875 C 6.035156 -1.472656 6.210938 -1.832031 6.328125 -2.25 C 6.441406 -2.675781 6.5 -3.148438 6.5 -3.671875 L 6.5 -4.375 C 6.5 -4.894531 6.441406 -5.363281 6.328125 -5.78125 C 6.210938 -6.207031 6.035156 -6.570312 5.796875 -6.875 C 5.566406 -7.175781 5.269531 -7.40625 4.90625 -7.5625 C 4.539062 -7.726562 4.109375 -7.8125 3.609375 -7.8125 L 1.5 -7.8125 L 1.5 -0.234375 Z M 3.609375 -0.234375 "/></g></g></g><g fill="#ffffff" fill-opacity="1"><g transform="translate(275.289361, 233.506038)"><g><path d="M 3.140625 0.140625 C 2.367188 0.140625 1.765625 -0.113281 1.328125 -0.625 C 0.898438 -1.132812 0.6875 -1.898438 0.6875 -2.921875 C 0.6875 -3.921875 0.894531 -4.675781 1.3125 -5.1875 C 1.738281 -5.707031 2.332031 -5.96875 3.09375 -5.96875 C 3.445312 -5.96875 3.765625 -5.898438 4.046875 -5.765625 C 4.335938 -5.628906 4.585938 -5.4375 4.796875 -5.1875 C 5.003906 -4.9375 5.164062 -4.628906 5.28125 -4.265625 C 5.394531 -3.910156 5.453125 -3.507812 5.453125 -3.0625 L 5.453125 -2.953125 L 0.953125 -2.953125 L 0.953125 -2.640625 C 0.953125 -1.847656 1.140625 -1.222656 1.515625 -0.765625 C 1.898438 -0.304688 2.441406 -0.078125 3.140625 -0.078125 C 4.117188 -0.078125 4.789062 -0.554688 5.15625 -1.515625 L 5.359375 -1.4375 C 5.179688 -0.945312 4.90625 -0.5625 4.53125 -0.28125 C 4.164062 0 3.703125 0.140625 3.140625 0.140625 Z M 3.09375 -5.75 C 2.40625 -5.75 1.875 -5.519531 1.5 -5.0625 C 1.132812 -4.601562 0.953125 -3.976562 0.953125 -3.1875 L 0.953125 -3.171875 L 5.1875 -3.171875 L 5.1875 -3.21875 C 5.1875 -3.601562 5.132812 -3.953125 5.03125 -4.265625 C 4.9375 -4.578125 4.796875 -4.84375 4.609375 -5.0625 C 4.421875 -5.28125 4.195312 -5.445312 3.9375 -5.5625 C 3.6875 -5.6875 3.40625 -5.75 3.09375 -5.75 Z M 3.09375 -5.75 "/></g></g></g><g fill="#ffffff" fill-opacity="1"><g transform="translate(281.429276, 233.506038)"><g><path d="M 0.28125 -5.828125 L 0.546875 -5.828125 L 2.59375 -0.28125 L 2.625 -0.28125 L 4.6875 -5.828125 L 4.921875 -5.828125 L 2.75 0 L 2.453125 0 Z M 0.28125 -5.828125 "/></g></g></g><g fill="#ffffff" fill-opacity="1"><g transform="translate(286.636109, 233.506038)"><g><path d="M 3.140625 0.140625 C 2.367188 0.140625 1.765625 -0.113281 1.328125 -0.625 C 0.898438 -1.132812 0.6875 -1.898438 0.6875 -2.921875 C 0.6875 -3.921875 0.894531 -4.675781 1.3125 -5.1875 C 1.738281 -5.707031 2.332031 -5.96875 3.09375 -5.96875 C 3.445312 -5.96875 3.765625 -5.898438 4.046875 -5.765625 C 4.335938 -5.628906 4.585938 -5.4375 4.796875 -5.1875 C 5.003906 -4.9375 5.164062 -4.628906 5.28125 -4.265625 C 5.394531 -3.910156 5.453125 -3.507812 5.453125 -3.0625 L 5.453125 -2.953125 L 0.953125 -2.953125 L 0.953125 -2.640625 C 0.953125 -1.847656 1.140625 -1.222656 1.515625 -0.765625 C 1.898438 -0.304688 2.441406 -0.078125 3.140625 -0.078125 C 4.117188 -0.078125 4.789062 -0.554688 5.15625 -1.515625 L 5.359375 -1.4375 C 5.179688 -0.945312 4.90625 -0.5625 4.53125 -0.28125 C 4.164062 0 3.703125 0.140625 3.140625 0.140625 Z M 3.09375 -5.75 C 2.40625 -5.75 1.875 -5.519531 1.5 -5.0625 C 1.132812 -4.601562 0.953125 -3.976562 0.953125 -3.1875 L 0.953125 -3.171875 L 5.1875 -3.171875 L 5.1875 -3.21875 C 5.1875 -3.601562 5.132812 -3.953125 5.03125 -4.265625 C 4.9375 -4.578125 4.796875 -4.84375 4.609375 -5.0625 C 4.421875 -5.28125 4.195312 -5.445312 3.9375 -5.5625 C 3.6875 -5.6875 3.40625 -5.75 3.09375 -5.75 Z M 3.09375 -5.75 "/></g></g></g><g fill="#ffffff" fill-opacity="1"><g transform="translate(292.776024, 233.506038)"><g><path d="M 1.546875 0 C 1.316406 0 1.203125 -0.109375 1.203125 -0.328125 L 1.203125 -8.53125 L 1.453125 -8.53125 L 1.453125 -0.21875 L 2.4375 -0.21875 L 2.4375 0 Z M 1.546875 0 "/></g></g></g><g fill="#ffffff" fill-opacity="1"><g transform="translate(295.66743, 233.506038)"><g><path d="M 3.109375 0.140625 C 2.335938 0.140625 1.738281 -0.113281 1.3125 -0.625 C 0.894531 -1.132812 0.6875 -1.898438 0.6875 -2.921875 C 0.6875 -3.929688 0.894531 -4.691406 1.3125 -5.203125 C 1.738281 -5.710938 2.335938 -5.96875 3.109375 -5.96875 C 3.878906 -5.96875 4.472656 -5.710938 4.890625 -5.203125 C 5.316406 -4.691406 5.53125 -3.929688 5.53125 -2.921875 C 5.53125 -1.898438 5.316406 -1.132812 4.890625 -0.625 C 4.472656 -0.113281 3.878906 0.140625 3.109375 0.140625 Z M 3.109375 -0.078125 C 3.804688 -0.078125 4.335938 -0.304688 4.703125 -0.765625 C 5.078125 -1.222656 5.265625 -1.847656 5.265625 -2.640625 L 5.265625 -3.1875 C 5.265625 -3.976562 5.078125 -4.601562 4.703125 -5.0625 C 4.335938 -5.519531 3.804688 -5.75 3.109375 -5.75 C 2.410156 -5.75 1.875 -5.519531 1.5 -5.0625 C 1.132812 -4.601562 0.953125 -3.976562 0.953125 -3.1875 L 0.953125 -2.640625 C 0.953125 -1.847656 1.132812 -1.222656 1.5 -0.765625 C 1.875 -0.304688 2.410156 -0.078125 3.109375 -0.078125 Z M 3.109375 -0.078125 "/></g></g></g><g fill="#ffffff" fill-opacity="1"><g transform="translate(301.887992, 233.506038)"><g><path d="M 1.203125 -5.828125 L 1.453125 -5.828125 L 1.453125 -4.9375 L 1.484375 -4.9375 C 1.546875 -5.0625 1.628906 -5.1875 1.734375 -5.3125 C 1.847656 -5.4375 1.984375 -5.546875 2.140625 -5.640625 C 2.296875 -5.734375 2.476562 -5.8125 2.6875 -5.875 C 2.894531 -5.9375 3.125 -5.96875 3.375 -5.96875 C 4.144531 -5.96875 4.742188 -5.710938 5.171875 -5.203125 C 5.609375 -4.703125 5.828125 -3.941406 5.828125 -2.921875 C 5.828125 -1.898438 5.609375 -1.132812 5.171875 -0.625 C 4.742188 -0.113281 4.144531 0.140625 3.375 0.140625 C 3.125 0.140625 2.894531 0.109375 2.6875 0.046875 C 2.476562 -0.015625 2.296875 -0.09375 2.140625 -0.1875 C 1.984375 -0.28125 1.847656 -0.390625 1.734375 -0.515625 C 1.628906 -0.640625 1.546875 -0.769531 1.484375 -0.90625 L 1.453125 -0.90625 L 1.453125 2.3125 L 1.203125 2.3125 Z M 3.375 -0.078125 C 4.070312 -0.078125 4.609375 -0.304688 4.984375 -0.765625 C 5.367188 -1.222656 5.5625 -1.847656 5.5625 -2.640625 L 5.5625 -3.1875 C 5.5625 -3.976562 5.367188 -4.601562 4.984375 -5.0625 C 4.609375 -5.519531 4.070312 -5.75 3.375 -5.75 C 3.125 -5.75 2.882812 -5.710938 2.65625 -5.640625 C 2.425781 -5.566406 2.21875 -5.457031 2.03125 -5.3125 C 1.851562 -5.175781 1.710938 -5.007812 1.609375 -4.8125 C 1.503906 -4.625 1.453125 -4.414062 1.453125 -4.1875 L 1.453125 -1.65625 C 1.453125 -1.414062 1.503906 -1.195312 1.609375 -1 C 1.710938 -0.8125 1.851562 -0.648438 2.03125 -0.515625 C 2.21875 -0.378906 2.425781 -0.269531 2.65625 -0.1875 C 2.882812 -0.113281 3.125 -0.078125 3.375 -0.078125 Z M 3.375 -0.078125 "/></g></g></g><g fill="#ffffff" fill-opacity="1"><g transform="translate(308.396533, 233.506038)"><g><path d="M 3.140625 0.140625 C 2.367188 0.140625 1.765625 -0.113281 1.328125 -0.625 C 0.898438 -1.132812 0.6875 -1.898438 0.6875 -2.921875 C 0.6875 -3.921875 0.894531 -4.675781 1.3125 -5.1875 C 1.738281 -5.707031 2.332031 -5.96875 3.09375 -5.96875 C 3.445312 -5.96875 3.765625 -5.898438 4.046875 -5.765625 C 4.335938 -5.628906 4.585938 -5.4375 4.796875 -5.1875 C 5.003906 -4.9375 5.164062 -4.628906 5.28125 -4.265625 C 5.394531 -3.910156 5.453125 -3.507812 5.453125 -3.0625 L 5.453125 -2.953125 L 0.953125 -2.953125 L 0.953125 -2.640625 C 0.953125 -1.847656 1.140625 -1.222656 1.515625 -0.765625 C 1.898438 -0.304688 2.441406 -0.078125 3.140625 -0.078125 C 4.117188 -0.078125 4.789062 -0.554688 5.15625 -1.515625 L 5.359375 -1.4375 C 5.179688 -0.945312 4.90625 -0.5625 4.53125 -0.28125 C 4.164062 0 3.703125 0.140625 3.140625 0.140625 Z M 3.09375 -5.75 C 2.40625 -5.75 1.875 -5.519531 1.5 -5.0625 C 1.132812 -4.601562 0.953125 -3.976562 0.953125 -3.1875 L 0.953125 -3.171875 L 5.1875 -3.171875 L 5.1875 -3.21875 C 5.1875 -3.601562 5.132812 -3.953125 5.03125 -4.265625 C 4.9375 -4.578125 4.796875 -4.84375 4.609375 -5.0625 C 4.421875 -5.28125 4.195312 -5.445312 3.9375 -5.5625 C 3.6875 -5.6875 3.40625 -5.75 3.09375 -5.75 Z M 3.09375 -5.75 "/></g></g></g><g fill="#ffffff" fill-opacity="1"><g transform="translate(314.536448, 233.506038)"><g><path d="M 1.203125 0 L 1.203125 -5.828125 L 1.453125 -5.828125 L 1.453125 -4.828125 L 1.484375 -4.828125 C 1.554688 -4.972656 1.640625 -5.101562 1.734375 -5.21875 C 1.828125 -5.332031 1.945312 -5.4375 2.09375 -5.53125 C 2.238281 -5.625 2.410156 -5.695312 2.609375 -5.75 C 2.804688 -5.800781 3.039062 -5.828125 3.3125 -5.828125 L 3.78125 -5.828125 L 3.78125 -5.609375 L 3.28125 -5.609375 C 3.039062 -5.609375 2.8125 -5.578125 2.59375 -5.515625 C 2.375 -5.453125 2.175781 -5.351562 2 -5.21875 C 1.832031 -5.09375 1.695312 -4.925781 1.59375 -4.71875 C 1.5 -4.519531 1.453125 -4.289062 1.453125 -4.03125 L 1.453125 0 Z M 1.203125 0 "/></g></g></g><g fill="#ffffff" fill-opacity="1"><g transform="translate(318.464609, 233.506038)"><g/></g></g><g fill="#ffffff" fill-opacity="1"><g transform="translate(321.183222, 233.506038)"><g><path d="M 0.15625 1.734375 L 2.890625 -8.53125 L 3.125 -8.53125 L 0.375 1.734375 Z M 0.15625 1.734375 "/></g></g></g><g fill="#ffffff" fill-opacity="1"><g transform="translate(324.788843, 233.506038)"><g><path d="M 0.984375 -0.703125 L 5.671875 -3.5 L 5.671875 -3.53125 L 0.984375 -6.328125 L 0.984375 -6.59375 L 5.9375 -3.625 L 5.9375 -3.40625 L 0.984375 -0.4375 Z M 0.984375 -0.703125 "/></g></g></g><path stroke-linecap="butt" transform="matrix(0.000000000000000092, -1.50263, 1.6, 0.000000000000000098, 64.370465, 230.788607)" fill="none" stroke-linejoin="miter" d="M -0.000302972 0.000392923 L 62.392924 0.000392923 " stroke="#ffffff" stroke-width="1" stroke-opacity="1" stroke-miterlimit="4"/><path stroke-linecap="butt" transform="matrix(0.000000000000000092, -1.495888, 1.5, 0.000000000000000092, 310.676293, 217.017847)" fill="none" stroke-linejoin="miter" d="M -0.00112569 -0.000341099 L 54.15515 -0.000341099 " stroke="#ffffff" stroke-width="1" stroke-opacity="1" stroke-miterlimit="4"/></svg>